<svg xmlns="http://www.w3.org/2000/svg" viewBox="0 0 1200 420" width="1200" height="420" role="img" aria-label="LUME INC.. Our studio site. Pixel type and dot-matrix numbers drawn from one 5×7 font."><title>LUME INC.. Our studio site. Pixel type and dot-matrix numbers drawn from one 5×7 font.</title><rect width="1200" height="420" rx="28" fill="#0D0D0E"/><circle cx="64.0" cy="60.0" r="7.20" fill="none" stroke="#605F64" stroke-width="1.60"/><path d="M82.97 53.70L81.44 53.70L81.44 66.30L87.92 66.30L87.92 64.86L82.97 64.86L82.97 53.70ZM91.34 53.70L89.81 53.70L89.81 62.16Q89.81 63.10 90.11 63.89Q90.40 64.68 90.97 65.26Q91.54 65.83 92.33 66.16Q93.12 66.48 94.09 66.48L94.09 66.48Q95.07 66.48 95.86 66.16Q96.65 65.83 97.22 65.26Q97.78 64.68 98.08 63.89Q98.38 63.10 98.38 62.16L98.38 62.16L98.38 53.70L96.85 53.70L96.85 62.16Q96.85 63.46 96.15 64.25Q95.44 65.04 94.09 65.04L94.09 65.04Q92.74 65.04 92.04 64.25Q91.34 63.46 91.34 62.16L91.34 62.16L91.34 53.70ZM102.34 66.30L103.27 57.79L107.38 65.13L111.48 57.79L112.42 66.30L113.95 66.30L112.42 53.07L107.38 62.20L102.34 53.07L100.81 66.30L102.34 66.30ZM117.31 64.86L117.31 66.30L123.67 66.30L123.67 64.86L117.31 64.86ZM117.31 53.70L117.31 55.14L123.67 55.14L123.67 53.70L117.31 53.70ZM117.31 58.74L117.31 60.18L123.31 60.18L123.31 58.74L117.31 58.74ZM118.00 53.70L116.47 53.70L116.47 66.30L118.00 66.30L118.00 53.70ZM134.02 53.70L132.49 53.70L132.49 66.30L134.02 66.30L134.02 53.70ZM148.33 53.70L146.80 53.70L146.80 63.08L137.26 53.07L137.26 66.30L138.79 66.30L138.79 56.92L148.33 66.93L148.33 53.70ZM152.47 60L152.47 60Q152.47 58.52 153.13 57.42Q153.78 56.31 154.84 55.68Q155.91 55.05 157.15 55.05L157.15 55.05Q158.05 55.05 158.79 55.28Q159.54 55.52 160.15 55.94Q160.77 56.36 161.20 56.92L161.20 56.92L161.20 54.91Q160.41 54.20 159.47 53.86Q158.53 53.52 157.15 53.52L157.15 53.52Q155.83 53.52 154.69 54.00Q153.55 54.47 152.68 55.35Q151.82 56.22 151.33 57.41Q150.85 58.60 150.85 60L150.85 60Q150.85 61.40 151.33 62.59Q151.82 63.78 152.68 64.65Q153.55 65.53 154.69 66.00Q155.83 66.48 157.15 66.48L157.15 66.48Q158.53 66.48 159.47 66.14Q160.41 65.80 161.20 65.09L161.20 65.09L161.20 63.08Q160.77 63.64 160.15 64.06Q159.54 64.48 158.79 64.72Q158.05 64.95 157.15 64.95L157.15 64.95Q155.91 64.95 154.84 64.32Q153.78 63.69 153.13 62.57Q152.47 61.46 152.47 60ZM164.26 65.58L164.26 65.58Q164.26 65.98 164.56 66.27Q164.85 66.57 165.25 66.57L165.25 66.57Q165.66 66.57 165.95 66.27Q166.24 65.98 166.24 65.58L166.24 65.58Q166.24 65.17 165.95 64.88Q165.66 64.59 165.25 64.59L165.25 64.59Q164.85 64.59 164.56 64.88Q164.26 65.17 164.26 65.58Z" fill="#605F64"/><path d="M93.55 222L62.12 222L62.12 166.71L67.17 166.71L67.17 217.47L93.55 217.47L93.55 222ZM136.34 202.96L136.34 166.71L141.39 166.71L141.39 203.30Q141.39 208.94 138.76 213.37Q136.12 217.81 131.39 220.37Q126.66 222.93 120.46 222.93L120.46 222.93Q114.23 222.93 109.50 220.37Q104.76 217.81 102.11 213.37Q99.46 208.94 99.46 203.30L99.46 203.30L99.46 166.71L104.50 166.71L104.50 202.96Q104.50 207.34 106.49 210.79Q108.48 214.24 112.06 216.21Q115.64 218.18 120.46 218.18L120.46 218.18Q125.25 218.18 128.81 216.21Q132.37 214.24 134.36 210.79Q136.34 207.34 136.34 202.96L136.34 202.96ZM150.60 222L150.60 166.71L156.46 166.71L176.50 214.84L177.02 214.84L197.06 166.71L203.07 166.71L203.07 222L198.13 222L198.13 177.36L197.73 177.36L178.99 222L174.42 222L155.83 177.36L155.42 177.36L155.42 222L150.60 222ZM244.93 222L212.31 222L212.31 166.71L244.41 166.71L244.41 171.27L217.36 171.27L217.36 191.90L242.71 191.90L242.71 196.43L217.36 196.43L217.36 217.47L244.93 217.47L244.93 222ZM267.95 166.71L272.99 166.71L272.99 222L267.95 222L267.95 166.71ZM320.35 166.71L325.36 166.71L325.36 222L320.39 222L287.77 175.72L287.28 175.72L287.28 222L282.24 222L282.24 166.71L287.14 166.71L319.94 213.06L320.35 213.06L320.35 166.71ZM356.05 222.74L356.05 222.74Q349.11 222.74 343.69 219.25Q338.27 215.77 335.21 209.40Q332.15 203.04 332.15 194.39L332.15 194.39Q332.15 185.71 335.21 179.32Q338.27 172.94 343.69 169.45Q349.11 165.96 356.05 165.96L356.05 165.96Q360.47 165.96 364.16 167.34Q367.85 168.71 370.71 171.16Q373.57 173.61 375.40 176.89Q377.24 180.18 377.91 184L377.91 184L372.82 184Q372.27 181.14 370.78 178.73Q369.30 176.32 367.09 174.50Q364.88 172.68 362.10 171.68Q359.32 170.68 356.05 170.68L356.05 170.68Q350.82 170.68 346.49 173.41Q342.17 176.13 339.59 181.42Q337.01 186.71 337.01 194.39L337.01 194.39Q337.01 202.07 339.59 207.34Q342.17 212.61 346.49 215.32Q350.82 218.03 356.05 218.03L356.05 218.03Q359.32 218.03 362.10 217.03Q364.88 216.03 367.09 214.21Q369.30 212.39 370.78 209.98Q372.27 207.56 372.82 204.71L372.82 204.71L377.91 204.71Q377.24 208.53 375.40 211.81Q373.57 215.10 370.71 217.55Q367.85 220.00 364.16 221.37Q360.47 222.74 356.05 222.74ZM387.67 222.41L387.67 222.41Q386.07 222.41 384.92 221.26Q383.77 220.11 383.77 218.51L383.77 218.51Q383.77 216.92 384.92 215.77Q386.07 214.62 387.67 214.62L387.67 214.62Q389.30 214.62 390.43 215.77Q391.57 216.92 391.57 218.51L391.57 218.51Q391.57 220.11 390.43 221.26Q389.30 222.41 387.67 222.41Z" fill="#F2F1EF"/><path d="M58.73 266.65L58.73 266.65Q58.73 264.99 59.45 263.69Q60.18 262.39 61.44 261.63Q62.70 260.88 64.30 260.88L64.30 260.88Q65.91 260.88 67.16 261.63Q68.41 262.39 69.14 263.69Q69.86 264.99 69.86 266.65L69.86 266.65Q69.86 268.31 69.14 269.61Q68.41 270.91 67.16 271.67Q65.91 272.43 64.30 272.43L64.30 272.43Q62.70 272.43 61.44 271.67Q60.18 270.91 59.45 269.61Q58.73 268.31 58.73 266.65ZM56.84 266.65L56.84 266.65Q56.84 268.25 57.40 269.63Q57.95 271.02 58.96 272.04Q59.97 273.06 61.33 273.63Q62.70 274.21 64.30 274.21L64.30 274.21Q65.91 274.21 67.27 273.63Q68.62 273.06 69.63 272.04Q70.64 271.02 71.19 269.63Q71.75 268.25 71.75 266.65L71.75 266.65Q71.75 265.03 71.19 263.66Q70.64 262.28 69.63 261.26Q68.62 260.25 67.27 259.67Q65.91 259.09 64.30 259.09L64.30 259.09Q62.70 259.09 61.33 259.67Q59.97 260.25 58.96 261.26Q57.95 262.28 57.40 263.66Q56.84 265.03 56.84 266.65ZM75.84 270.22L75.84 270.22L75.84 264.34L74.17 264.34L74.17 270.43Q74.17 272.15 75.07 273.18Q75.97 274.21 77.48 274.21L77.48 274.21Q78.45 274.21 79.16 273.78Q79.88 273.35 80.36 272.49L80.36 272.49L80.36 274L82.04 274L82.04 264.34L80.36 264.34L80.36 270.22Q80.36 270.93 80.06 271.48Q79.75 272.03 79.19 272.33Q78.64 272.63 77.90 272.63L77.90 272.63Q76.90 272.63 76.37 272.00Q75.84 271.38 75.84 270.22ZM86.87 274L86.87 264.34L85.19 264.34L85.19 274L86.87 274ZM89.79 266.19L89.79 266.19L90.71 264.80Q90.34 264.40 89.88 264.27Q89.43 264.13 88.91 264.13L88.91 264.13Q88.24 264.13 87.58 264.65Q86.93 265.18 86.52 266.07Q86.11 266.96 86.11 268.12L86.11 268.12L86.87 268.12Q86.87 267.43 87.01 266.88Q87.14 266.33 87.50 266.02Q87.86 265.70 88.49 265.70L88.49 265.70Q88.91 265.70 89.18 265.82Q89.45 265.94 89.79 266.19ZM99.09 271.04L99.09 271.04L97.77 271.86Q98.04 272.43 98.58 272.97Q99.11 273.52 99.89 273.86Q100.67 274.21 101.63 274.21L101.63 274.21Q103.12 274.21 104.04 273.37Q104.95 272.53 104.95 271.27L104.95 271.27Q104.95 270.41 104.54 269.86Q104.13 269.32 103.44 268.93Q102.75 268.54 101.91 268.20L101.91 268.20Q101.40 267.99 100.94 267.76Q100.48 267.53 100.18 267.24Q99.89 266.94 99.89 266.57L99.89 266.57Q99.89 266.08 100.27 265.85Q100.65 265.62 101.17 265.62L101.17 265.62Q101.93 265.62 102.53 265.98Q103.12 266.33 103.52 266.88L103.52 266.88L104.87 266.02Q104.57 265.47 104.05 265.05Q103.52 264.63 102.84 264.38Q102.16 264.13 101.38 264.13L101.38 264.13Q100.60 264.13 99.88 264.40Q99.16 264.68 98.70 265.24Q98.25 265.81 98.25 266.67L98.25 266.67Q98.25 267.51 98.68 268.07Q99.11 268.62 99.75 268.97Q100.39 269.32 101.02 269.57L101.02 269.57Q101.59 269.78 102.10 270.02Q102.60 270.26 102.92 270.61Q103.25 270.95 103.25 271.46L103.25 271.46Q103.25 272.03 102.84 272.35Q102.43 272.68 101.72 272.68L101.72 272.68Q101.13 272.68 100.64 272.46Q100.14 272.24 99.76 271.86Q99.39 271.48 99.09 271.04ZM110.52 264.34L105.69 264.34L105.69 265.92L110.52 265.92L110.52 264.34ZM108.94 260.98L107.26 260.98L107.26 274L108.94 274L108.94 260.98ZM113.88 270.22L113.88 270.22L113.88 264.34L112.20 264.34L112.20 270.43Q112.20 272.15 113.10 273.18Q114.00 274.21 115.51 274.21L115.51 274.21Q116.48 274.21 117.19 273.78Q117.91 273.35 118.39 272.49L118.39 272.49L118.39 274L120.07 274L120.07 264.34L118.39 264.34L118.39 270.22Q118.39 270.93 118.09 271.48Q117.78 272.03 117.23 272.33Q116.67 272.63 115.93 272.63L115.93 272.63Q114.93 272.63 114.40 272.00Q113.88 271.38 113.88 270.22ZM132.15 257.62L130.47 257.62L130.47 274L132.15 274L132.15 257.62ZM122.38 269.17L122.38 269.17Q122.38 270.72 123.03 271.86Q123.68 272.99 124.78 273.60Q125.87 274.21 127.17 274.21L127.17 274.21Q128.39 274.21 129.29 273.60Q130.19 272.99 130.71 271.86Q131.22 270.72 131.22 269.17L131.22 269.17Q131.22 267.60 130.71 266.47Q130.19 265.35 129.29 264.74Q128.39 264.13 127.17 264.13L127.17 264.13Q125.87 264.13 124.78 264.74Q123.68 265.35 123.03 266.47Q122.38 267.60 122.38 269.17ZM124.08 269.17L124.08 269.17Q124.08 268.06 124.53 267.28Q124.99 266.50 125.74 266.10Q126.50 265.70 127.38 265.70L127.38 265.70Q128.11 265.70 128.83 266.10Q129.54 266.50 130.00 267.28Q130.47 268.06 130.47 269.17L130.47 269.17Q130.47 270.28 130.00 271.06Q129.54 271.84 128.83 272.24Q128.11 272.63 127.38 272.63L127.38 272.63Q126.50 272.63 125.74 272.24Q124.99 271.84 124.53 271.06Q124.08 270.28 124.08 269.17ZM135.19 260.35L135.19 260.35Q135.19 260.81 135.54 261.16Q135.88 261.50 136.35 261.50L136.35 261.50Q136.83 261.50 137.17 261.16Q137.50 260.81 137.50 260.35L137.50 260.35Q137.50 259.87 137.17 259.53Q136.83 259.19 136.35 259.19L136.35 259.19Q135.88 259.19 135.54 259.53Q135.19 259.87 135.19 260.35ZM137.19 264.34L135.51 264.34L135.51 274L137.19 274L137.19 264.34ZM139.81 269.17L139.81 269.17Q139.81 270.62 140.47 271.76Q141.13 272.91 142.27 273.56Q143.40 274.21 144.81 274.21L144.81 274.21Q146.24 274.21 147.36 273.56Q148.48 272.91 149.15 271.76Q149.81 270.62 149.81 269.17L149.81 269.17Q149.81 267.70 149.15 266.57Q148.48 265.43 147.36 264.78Q146.24 264.13 144.81 264.13L144.81 264.13Q143.40 264.13 142.27 264.78Q141.13 265.43 140.47 266.57Q139.81 267.70 139.81 269.17ZM141.51 269.17L141.51 269.17Q141.51 268.16 141.94 267.37Q142.37 266.59 143.12 266.15Q143.86 265.70 144.81 265.70L144.81 265.70Q145.75 265.70 146.50 266.15Q147.25 266.59 147.68 267.37Q148.11 268.16 148.11 269.17L148.11 269.17Q148.11 270.18 147.68 270.95Q147.25 271.73 146.50 272.18Q145.75 272.63 144.81 272.63L144.81 272.63Q143.86 272.63 143.12 272.18Q142.37 271.73 141.94 270.95Q141.51 270.18 141.51 269.17ZM158.82 271.04L158.82 271.04L157.49 271.86Q157.77 272.43 158.30 272.97Q158.84 273.52 159.61 273.86Q160.39 274.21 161.36 274.21L161.36 274.21Q162.85 274.21 163.76 273.37Q164.67 272.53 164.67 271.27L164.67 271.27Q164.67 270.41 164.27 269.86Q163.86 269.32 163.16 268.93Q162.47 268.54 161.63 268.20L161.63 268.20Q161.13 267.99 160.66 267.76Q160.20 267.53 159.91 267.24Q159.61 266.94 159.61 266.57L159.61 266.57Q159.61 266.08 159.99 265.85Q160.37 265.62 160.89 265.62L160.89 265.62Q161.65 265.62 162.25 265.98Q162.85 266.33 163.25 266.88L163.25 266.88L164.59 266.02Q164.30 265.47 163.77 265.05Q163.25 264.63 162.56 264.38Q161.88 264.13 161.10 264.13L161.10 264.13Q160.33 264.13 159.60 264.40Q158.88 264.68 158.43 265.24Q157.98 265.81 157.98 266.67L157.98 266.67Q157.98 267.51 158.41 268.07Q158.84 268.62 159.48 268.97Q160.12 269.32 160.75 269.57L160.75 269.57Q161.31 269.78 161.82 270.02Q162.32 270.26 162.65 270.61Q162.97 270.95 162.97 271.46L162.97 271.46Q162.97 272.03 162.56 272.35Q162.15 272.68 161.44 272.68L161.44 272.68Q160.85 272.68 160.36 272.46Q159.87 272.24 159.49 271.86Q159.11 271.48 158.82 271.04ZM166.88 260.35L166.88 260.35Q166.88 260.81 167.23 261.16Q167.57 261.50 168.03 261.50L168.03 261.50Q168.52 261.50 168.85 261.16Q169.19 260.81 169.19 260.35L169.19 260.35Q169.19 259.87 168.85 259.53Q168.52 259.19 168.03 259.19L168.03 259.19Q167.57 259.19 167.23 259.53Q166.88 259.87 166.88 260.35ZM168.88 264.34L167.19 264.34L167.19 274L168.88 274L168.88 264.34ZM175.70 264.34L170.87 264.34L170.87 265.92L175.70 265.92L175.70 264.34ZM174.13 260.98L172.44 260.98L172.44 274L174.13 274L174.13 260.98ZM181.12 274.21L181.12 274.21Q182.67 274.21 183.82 273.59Q184.96 272.97 185.72 271.75L185.72 271.75L184.35 270.89Q183.83 271.77 183.07 272.20Q182.31 272.63 181.33 272.63L181.33 272.63Q180.34 272.63 179.65 272.21Q178.96 271.80 178.60 271.00Q178.24 270.20 178.24 269.06L178.24 269.06Q178.26 267.95 178.63 267.19Q179.00 266.42 179.68 266.01Q180.36 265.60 181.33 265.60L181.33 265.60Q182.15 265.60 182.76 265.96Q183.37 266.31 183.71 266.94Q184.06 267.57 184.06 268.44L184.06 268.44Q184.06 268.58 184.00 268.80Q183.93 269.02 183.87 269.13L183.87 269.13L184.54 268.16L177.61 268.16L177.61 269.59L185.86 269.59Q185.86 269.55 185.87 269.39Q185.89 269.23 185.89 269.09L185.89 269.09Q185.89 267.55 185.34 266.44Q184.79 265.33 183.77 264.73Q182.76 264.13 181.33 264.13L181.33 264.13Q179.90 264.13 178.82 264.76Q177.74 265.39 177.14 266.52Q176.54 267.66 176.54 269.17L176.54 269.17Q176.54 270.66 177.12 271.80Q177.69 272.93 178.73 273.57Q179.77 274.21 181.12 274.21ZM187.56 273.16L187.56 273.16Q187.56 273.62 187.91 273.97Q188.26 274.31 188.72 274.31L188.72 274.31Q189.20 274.31 189.54 273.97Q189.88 273.62 189.88 273.16L189.88 273.16Q189.88 272.68 189.54 272.34Q189.20 272.00 188.72 272.00L188.72 272.00Q188.26 272.00 187.91 272.34Q187.56 272.68 187.56 273.16ZM201.64 259.30L199.85 259.30L199.85 274L201.64 274L201.64 259.30ZM200.84 259.30L200.84 260.98L203.84 260.98Q205.27 260.98 206.16 261.66Q207.05 262.35 207.05 263.71L207.05 263.71Q207.05 265.05 206.16 265.75Q205.27 266.44 203.84 266.44L203.84 266.44L200.84 266.44L200.84 268.12L203.84 268.12Q205.27 268.12 206.39 267.58Q207.52 267.05 208.18 266.05Q208.84 265.05 208.84 263.71L208.84 263.71Q208.84 262.35 208.18 261.36Q207.52 260.37 206.39 259.84Q205.27 259.30 203.84 259.30L203.84 259.30L200.84 259.30ZM211.25 260.35L211.25 260.35Q211.25 260.81 211.60 261.16Q211.95 261.50 212.41 261.50L212.41 261.50Q212.89 261.50 213.23 261.16Q213.56 260.81 213.56 260.35L213.56 260.35Q213.56 259.87 213.23 259.53Q212.89 259.19 212.41 259.19L212.41 259.19Q211.95 259.19 211.60 259.53Q211.25 259.87 211.25 260.35ZM213.25 264.34L211.57 264.34L211.57 274L213.25 274L213.25 264.34ZM223.75 264.34L221.86 264.34L219.55 267.70L217.24 264.34L215.35 264.34L218.65 269.02L215.14 274L217.03 274L219.55 270.35L222.07 274L223.96 274L220.45 269.02L223.75 264.34ZM228.96 274.21L228.96 274.21Q230.51 274.21 231.65 273.59Q232.80 272.97 233.56 271.75L233.56 271.75L232.19 270.89Q231.67 271.77 230.91 272.20Q230.15 272.63 229.17 272.63L229.17 272.63Q228.18 272.63 227.49 272.21Q226.79 271.80 226.44 271.00Q226.08 270.20 226.08 269.06L226.08 269.06Q226.10 267.95 226.47 267.19Q226.84 266.42 227.52 266.01Q228.20 265.60 229.17 265.60L229.17 265.60Q229.99 265.60 230.59 265.96Q231.20 266.31 231.55 266.94Q231.90 267.57 231.90 268.44L231.90 268.44Q231.90 268.58 231.83 268.80Q231.77 269.02 231.71 269.13L231.71 269.13L232.38 268.16L225.45 268.16L225.45 269.59L233.70 269.59Q233.70 269.55 233.71 269.39Q233.72 269.23 233.72 269.09L233.72 269.09Q233.72 267.55 233.18 266.44Q232.63 265.33 231.61 264.73Q230.59 264.13 229.17 264.13L229.17 264.13Q227.74 264.13 226.66 264.76Q225.58 265.39 224.98 266.52Q224.38 267.66 224.38 269.17L224.38 269.17Q224.38 270.66 224.96 271.80Q225.53 272.93 226.57 273.57Q227.61 274.21 228.96 274.21ZM237.71 257.62L236.03 257.62L236.03 274L237.71 274L237.71 257.62ZM250.52 264.34L245.69 264.34L245.69 265.92L250.52 265.92L250.52 264.34ZM248.95 260.98L247.27 260.98L247.27 274L248.95 274L248.95 260.98ZM253.57 278.62L259.87 264.34L257.98 264.34L255.00 271.82L255.69 271.90L252.62 264.34L250.63 264.34L254.32 272.63L251.68 278.62L253.57 278.62ZM261.34 278.62L263.02 278.62L263.02 264.34L261.34 264.34L261.34 278.62ZM271.10 269.17L271.10 269.17Q271.10 267.60 270.45 266.47Q269.80 265.35 268.72 264.74Q267.64 264.13 266.32 264.13L266.32 264.13Q265.12 264.13 264.20 264.74Q263.29 265.35 262.78 266.47Q262.26 267.60 262.26 269.17L262.26 269.17Q262.26 270.72 262.78 271.86Q263.29 272.99 264.20 273.60Q265.12 274.21 266.32 274.21L266.32 274.21Q267.64 274.21 268.72 273.60Q269.80 272.99 270.45 271.86Q271.10 270.72 271.10 269.17ZM269.40 269.17L269.40 269.17Q269.40 270.28 268.95 271.06Q268.50 271.84 267.75 272.24Q267.01 272.63 266.11 272.63L266.11 272.63Q265.37 272.63 264.66 272.24Q263.94 271.84 263.48 271.06Q263.02 270.28 263.02 269.17L263.02 269.17Q263.02 268.06 263.48 267.28Q263.94 266.50 264.66 266.10Q265.37 265.70 266.11 265.70L266.11 265.70Q267.01 265.70 267.75 266.10Q268.50 266.50 268.95 267.28Q269.40 268.06 269.40 269.17ZM277.15 274.21L277.15 274.21Q278.71 274.21 279.85 273.59Q280.99 272.97 281.75 271.75L281.75 271.75L280.39 270.89Q279.86 271.77 279.10 272.20Q278.35 272.63 277.36 272.63L277.36 272.63Q276.37 272.63 275.68 272.21Q274.99 271.80 274.63 271.00Q274.27 270.20 274.27 269.06L274.27 269.06Q274.30 267.95 274.66 267.19Q275.03 266.42 275.71 266.01Q276.40 265.60 277.36 265.60L277.36 265.60Q278.18 265.60 278.79 265.96Q279.40 266.31 279.74 266.94Q280.09 267.57 280.09 268.44L280.09 268.44Q280.09 268.58 280.03 268.80Q279.97 269.02 279.90 269.13L279.90 269.13L280.57 268.16L273.64 268.16L273.64 269.59L281.90 269.59Q281.90 269.55 281.91 269.39Q281.92 269.23 281.92 269.09L281.92 269.09Q281.92 267.55 281.37 266.44Q280.83 265.33 279.81 264.73Q278.79 264.13 277.36 264.13L277.36 264.13Q275.93 264.13 274.85 264.76Q273.77 265.39 273.17 266.52Q272.57 267.66 272.57 269.17L272.57 269.17Q272.57 270.66 273.15 271.80Q273.73 272.93 274.77 273.57Q275.81 274.21 277.15 274.21ZM291.28 271.02L291.28 271.02Q291.28 270.49 291.54 270.12Q291.79 269.74 292.30 269.53Q292.82 269.32 293.64 269.32L293.64 269.32Q294.52 269.32 295.30 269.54Q296.07 269.76 296.81 270.26L296.81 270.26L296.81 269.27Q296.66 269.09 296.24 268.78Q295.82 268.48 295.12 268.24Q294.41 267.99 293.36 267.99L293.36 267.99Q291.58 267.99 290.58 268.84Q289.58 269.69 289.58 271.10L289.58 271.10Q289.58 272.09 290.05 272.78Q290.51 273.48 291.27 273.84Q292.04 274.21 292.92 274.21L292.92 274.21Q293.72 274.21 294.53 273.92Q295.34 273.62 295.89 273.01Q296.45 272.40 296.45 271.48L296.45 271.48L296.11 270.22Q296.11 270.98 295.75 271.55Q295.38 272.13 294.76 272.45Q294.14 272.76 293.36 272.76L293.36 272.76Q292.75 272.76 292.28 272.56Q291.81 272.36 291.55 271.96Q291.28 271.56 291.28 271.02ZM290.21 265.33L291.03 266.57Q291.26 266.40 291.66 266.17Q292.06 265.94 292.64 265.77Q293.22 265.60 293.93 265.60L293.93 265.60Q294.37 265.60 294.77 265.68Q295.17 265.77 295.47 265.96Q295.78 266.15 295.95 266.47Q296.11 266.80 296.11 267.30L296.11 267.30L296.11 274L297.79 274L297.79 267.07Q297.79 266.13 297.32 265.47Q296.85 264.82 296.00 264.48Q295.15 264.13 294.01 264.13L294.01 264.13Q292.67 264.13 291.71 264.53Q290.76 264.93 290.21 265.33L290.21 265.33ZM306.82 268.12L306.82 268.12L306.82 274L308.50 274L308.50 267.91Q308.50 266.17 307.61 265.15Q306.72 264.13 305.19 264.13L305.19 264.13Q304.24 264.13 303.52 264.55Q302.79 264.97 302.31 265.85L302.31 265.85L302.31 264.34L300.63 264.34L300.63 274L302.31 274L302.31 268.12Q302.31 267.41 302.61 266.86Q302.92 266.31 303.47 266.01Q304.03 265.70 304.77 265.70L304.77 265.70Q305.77 265.70 306.30 266.31Q306.82 266.92 306.82 268.12ZM320.58 257.62L318.90 257.62L318.90 274L320.58 274L320.58 257.62ZM310.81 269.17L310.81 269.17Q310.81 270.72 311.47 271.86Q312.12 272.99 313.21 273.60Q314.30 274.21 315.60 274.21L315.60 274.21Q316.82 274.21 317.72 273.60Q318.63 272.99 319.14 271.86Q319.66 270.72 319.66 269.17L319.66 269.17Q319.66 267.60 319.14 266.47Q318.63 265.35 317.72 264.74Q316.82 264.13 315.60 264.13L315.60 264.13Q314.30 264.13 313.21 264.74Q312.12 265.35 311.47 266.47Q310.81 267.60 310.81 269.17ZM312.52 269.17L312.52 269.17Q312.52 268.06 312.97 267.28Q313.42 266.50 314.17 266.10Q314.93 265.70 315.81 265.70L315.81 265.70Q316.55 265.70 317.26 266.10Q317.98 266.50 318.44 267.28Q318.90 268.06 318.90 269.17L318.90 269.17Q318.90 270.28 318.44 271.06Q317.98 271.84 317.26 272.24Q316.55 272.63 315.81 272.63L315.81 272.63Q314.93 272.63 314.17 272.24Q313.42 271.84 312.97 271.06Q312.52 270.28 312.52 269.17ZM338.85 257.62L337.17 257.62L337.17 274L338.85 274L338.85 257.62ZM329.08 269.17L329.08 269.17Q329.08 270.72 329.74 271.86Q330.39 272.99 331.48 273.60Q332.57 274.21 333.87 274.21L333.87 274.21Q335.09 274.21 335.99 273.60Q336.90 272.99 337.41 271.86Q337.93 270.72 337.93 269.17L337.93 269.17Q337.93 267.60 337.41 266.47Q336.90 265.35 335.99 264.74Q335.09 264.13 333.87 264.13L333.87 264.13Q332.57 264.13 331.48 264.74Q330.39 265.35 329.74 266.47Q329.08 267.60 329.08 269.17ZM330.79 269.17L330.79 269.17Q330.79 268.06 331.24 267.28Q331.69 266.50 332.44 266.10Q333.20 265.70 334.08 265.70L334.08 265.70Q334.82 265.70 335.53 266.10Q336.25 266.50 336.71 267.28Q337.17 268.06 337.17 269.17L337.17 269.17Q337.17 270.28 336.71 271.06Q336.25 271.84 335.53 272.24Q334.82 272.63 334.08 272.63L334.08 272.63Q333.20 272.63 332.44 272.24Q331.69 271.84 331.24 271.06Q330.79 270.28 330.79 269.17ZM341.05 269.17L341.05 269.17Q341.05 270.62 341.72 271.76Q342.38 272.91 343.51 273.56Q344.65 274.21 346.05 274.21L346.05 274.21Q347.48 274.21 348.60 273.56Q349.73 272.91 350.39 271.76Q351.05 270.62 351.05 269.17L351.05 269.17Q351.05 267.70 350.39 266.57Q349.73 265.43 348.60 264.78Q347.48 264.13 346.05 264.13L346.05 264.13Q344.65 264.13 343.51 264.78Q342.38 265.43 341.72 266.57Q341.05 267.70 341.05 269.17ZM342.76 269.17L342.76 269.17Q342.76 268.16 343.19 267.37Q343.62 266.59 344.36 266.15Q345.11 265.70 346.05 265.70L346.05 265.70Q347.00 265.70 347.74 266.15Q348.49 266.59 348.92 267.37Q349.35 268.16 349.35 269.17L349.35 269.17Q349.35 270.18 348.92 270.95Q348.49 271.73 347.74 272.18Q347.00 272.63 346.05 272.63L346.05 272.63Q345.11 272.63 344.36 272.18Q343.62 271.73 343.19 270.95Q342.76 270.18 342.76 269.17ZM356.72 264.34L351.89 264.34L351.89 265.92L356.72 265.92L356.72 264.34ZM355.15 260.98L353.47 260.98L353.47 274L355.15 274L355.15 260.98ZM356.93 268.23L356.93 269.80L361.13 269.80L361.13 268.23L356.93 268.23ZM376.04 274L376.04 267.91Q376.04 266.71 375.67 265.86Q375.31 265.01 374.61 264.57Q373.92 264.13 372.93 264.13L372.93 264.13Q371.97 264.13 371.21 264.58Q370.45 265.03 369.95 265.94L369.95 265.94Q369.61 265.07 368.89 264.60Q368.17 264.13 367.16 264.13L367.16 264.13Q366.25 264.13 365.59 264.53Q364.93 264.93 364.49 265.75L364.49 265.75L364.49 264.34L362.81 264.34L362.81 274L364.49 274L364.49 268.12Q364.49 267.36 364.76 266.82Q365.04 266.27 365.54 265.99Q366.04 265.70 366.74 265.70L366.74 265.70Q367.68 265.70 368.13 266.29Q368.59 266.88 368.59 268.12L368.59 268.12L368.59 274L370.27 274L370.27 268.12Q370.27 267.36 370.54 266.82Q370.81 266.27 371.32 265.99Q371.82 265.70 372.51 265.70L372.51 265.70Q373.46 265.70 373.91 266.29Q374.36 266.88 374.36 268.12L374.36 268.12L374.36 274L376.04 274ZM379.95 271.02L379.95 271.02Q379.95 270.49 380.20 270.12Q380.45 269.74 380.96 269.53Q381.48 269.32 382.30 269.32L382.30 269.32Q383.18 269.32 383.96 269.54Q384.73 269.76 385.47 270.26L385.47 270.26L385.47 269.27Q385.32 269.09 384.90 268.78Q384.48 268.48 383.78 268.24Q383.08 267.99 382.03 267.99L382.03 267.99Q380.24 267.99 379.24 268.84Q378.25 269.69 378.25 271.10L378.25 271.10Q378.25 272.09 378.71 272.78Q379.17 273.48 379.94 273.84Q380.70 274.21 381.58 274.21L381.58 274.21Q382.38 274.21 383.19 273.92Q384.00 273.62 384.56 273.01Q385.11 272.40 385.11 271.48L385.11 271.48L384.78 270.22Q384.78 270.98 384.41 271.55Q384.04 272.13 383.42 272.45Q382.80 272.76 382.03 272.76L382.03 272.76Q381.42 272.76 380.94 272.56Q380.47 272.36 380.21 271.96Q379.95 271.56 379.95 271.02ZM378.88 265.33L379.69 266.57Q379.93 266.40 380.32 266.17Q380.72 265.94 381.30 265.77Q381.88 265.60 382.59 265.60L382.59 265.60Q383.03 265.60 383.43 265.68Q383.83 265.77 384.14 265.96Q384.44 266.15 384.61 266.47Q384.78 266.80 384.78 267.30L384.78 267.30L384.78 274L386.46 274L386.46 267.07Q386.46 266.13 385.98 265.47Q385.51 264.82 384.66 264.48Q383.81 264.13 382.68 264.13L382.68 264.13Q381.33 264.13 380.38 264.53Q379.42 264.93 378.88 265.33L378.88 265.33ZM392.65 264.34L387.82 264.34L387.82 265.92L392.65 265.92L392.65 264.34ZM391.08 260.98L389.40 260.98L389.40 274L391.08 274L391.08 260.98ZM396.01 274L396.01 264.34L394.33 264.34L394.33 274L396.01 274ZM398.93 266.19L398.93 266.19L399.85 264.80Q399.48 264.40 399.02 264.27Q398.57 264.13 398.05 264.13L398.05 264.13Q397.38 264.13 396.73 264.65Q396.07 265.18 395.66 266.07Q395.26 266.96 395.26 268.12L395.26 268.12L396.01 268.12Q396.01 267.43 396.15 266.88Q396.28 266.33 396.64 266.02Q397.00 265.70 397.63 265.70L397.63 265.70Q398.05 265.70 398.32 265.82Q398.59 265.94 398.93 266.19ZM401.53 260.35L401.53 260.35Q401.53 260.81 401.88 261.16Q402.23 261.50 402.69 261.50L402.69 261.50Q403.17 261.50 403.51 261.16Q403.84 260.81 403.84 260.35L403.84 260.35Q403.84 259.87 403.51 259.53Q403.17 259.19 402.69 259.19L402.69 259.19Q402.23 259.19 401.88 259.53Q401.53 259.87 401.53 260.35ZM403.53 264.34L401.85 264.34L401.85 274L403.53 274L403.53 264.34ZM414.03 264.34L412.14 264.34L409.83 267.70L407.52 264.34L405.63 264.34L408.93 269.02L405.42 274L407.31 274L409.83 270.35L412.35 274L414.24 274L410.73 269.02L414.03 264.34ZM428.31 268.12L428.31 268.12L428.31 274L429.99 274L429.99 267.91Q429.99 266.17 429.10 265.15Q428.20 264.13 426.67 264.13L426.67 264.13Q425.73 264.13 425.00 264.55Q424.28 264.97 423.79 265.85L423.79 265.85L423.79 264.34L422.11 264.34L422.11 274L423.79 274L423.79 268.12Q423.79 267.41 424.10 266.86Q424.40 266.31 424.96 266.01Q425.52 265.70 426.25 265.70L426.25 265.70Q427.26 265.70 427.78 266.31Q428.31 266.92 428.31 268.12ZM434.82 270.22L434.82 270.22L434.82 264.34L433.14 264.34L433.14 270.43Q433.14 272.15 434.04 273.18Q434.95 274.21 436.46 274.21L436.46 274.21Q437.42 274.21 438.14 273.78Q438.85 273.35 439.33 272.49L439.33 272.49L439.33 274L441.01 274L441.01 264.34L439.33 264.34L439.33 270.22Q439.33 270.93 439.03 271.48Q438.73 272.03 438.17 272.33Q437.61 272.63 436.88 272.63L436.88 272.63Q435.87 272.63 435.34 272.00Q434.82 271.38 434.82 270.22ZM457.39 274L457.39 267.91Q457.39 266.71 457.03 265.86Q456.66 265.01 455.97 264.57Q455.27 264.13 454.29 264.13L454.29 264.13Q453.32 264.13 452.56 264.58Q451.81 265.03 451.30 265.94L451.30 265.94Q450.97 265.07 450.24 264.60Q449.52 264.13 448.51 264.13L448.51 264.13Q447.61 264.13 446.95 264.53Q446.29 264.93 445.84 265.75L445.84 265.75L445.84 264.34L444.16 264.34L444.16 274L445.84 274L445.84 268.12Q445.84 267.36 446.12 266.82Q446.39 266.27 446.89 265.99Q447.40 265.70 448.09 265.70L448.09 265.70Q449.04 265.70 449.49 266.29Q449.94 266.88 449.94 268.12L449.94 268.12L449.94 274L451.62 274L451.62 268.12Q451.62 267.36 451.89 266.82Q452.17 266.27 452.67 265.99Q453.17 265.70 453.87 265.70L453.87 265.70Q454.81 265.70 455.26 266.29Q455.71 266.88 455.71 268.12L455.71 268.12L455.71 274L457.39 274ZM462.12 274L462.12 257.62L460.44 257.62L460.44 274L462.12 274ZM470.20 269.17L470.20 269.17Q470.20 267.60 469.55 266.47Q468.90 265.35 467.82 264.74Q466.74 264.13 465.42 264.13L465.42 264.13Q464.22 264.13 463.31 264.74Q462.39 265.35 461.88 266.47Q461.36 267.60 461.36 269.17L461.36 269.17Q461.36 270.72 461.88 271.86Q462.39 272.99 463.31 273.60Q464.22 274.21 465.42 274.21L465.42 274.21Q466.74 274.21 467.82 273.60Q468.90 272.99 469.55 271.86Q470.20 270.72 470.20 269.17ZM468.50 269.17L468.50 269.17Q468.50 270.28 468.05 271.06Q467.60 271.84 466.85 272.24Q466.11 272.63 465.21 272.63L465.21 272.63Q464.47 272.63 463.76 272.24Q463.04 271.84 462.58 271.06Q462.12 270.28 462.12 269.17L462.12 269.17Q462.12 268.06 462.58 267.28Q463.04 266.50 463.76 266.10Q464.47 265.70 465.21 265.70L465.21 265.70Q466.11 265.70 466.85 266.10Q467.60 266.50 468.05 267.28Q468.50 268.06 468.50 269.17ZM476.25 274.21L476.25 274.21Q477.81 274.21 478.95 273.59Q480.10 272.97 480.85 271.75L480.85 271.75L479.49 270.89Q478.96 271.77 478.21 272.20Q477.45 272.63 476.46 272.63L476.46 272.63Q475.48 272.63 474.78 272.21Q474.09 271.80 473.73 271.00Q473.38 270.20 473.38 269.06L473.38 269.06Q473.40 267.95 473.76 267.19Q474.13 266.42 474.81 266.01Q475.50 265.60 476.46 265.60L476.46 265.60Q477.28 265.60 477.89 265.96Q478.50 266.31 478.85 266.94Q479.19 267.57 479.19 268.44L479.19 268.44Q479.19 268.58 479.13 268.80Q479.07 269.02 479.00 269.13L479.00 269.13L479.68 268.16L472.75 268.16L472.75 269.59L481.00 269.59Q481.00 269.55 481.01 269.39Q481.02 269.23 481.02 269.09L481.02 269.09Q481.02 267.55 480.47 266.44Q479.93 265.33 478.91 264.73Q477.89 264.13 476.46 264.13L476.46 264.13Q475.03 264.13 473.95 264.76Q472.87 265.39 472.27 266.52Q471.67 267.66 471.67 269.17L471.67 269.17Q471.67 270.66 472.25 271.80Q472.83 272.93 473.87 273.57Q474.91 274.21 476.25 274.21ZM485.01 274L485.01 264.34L483.33 264.34L483.33 274L485.01 274ZM487.93 266.19L487.93 266.19L488.85 264.80Q488.47 264.40 488.02 264.27Q487.57 264.13 487.05 264.13L487.05 264.13Q486.37 264.13 485.72 264.65Q485.07 265.18 484.66 266.07Q484.25 266.96 484.25 268.12L484.25 268.12L485.01 268.12Q485.01 267.43 485.15 266.88Q485.28 266.33 485.64 266.02Q486.00 265.70 486.63 265.70L486.63 265.70Q487.05 265.70 487.32 265.82Q487.59 265.94 487.93 266.19ZM490.93 271.04L490.93 271.04L489.61 271.86Q489.88 272.43 490.42 272.97Q490.95 273.52 491.73 273.86Q492.51 274.21 493.47 274.21L493.47 274.21Q494.96 274.21 495.88 273.37Q496.79 272.53 496.79 271.27L496.79 271.27Q496.79 270.41 496.38 269.86Q495.97 269.32 495.28 268.93Q494.59 268.54 493.75 268.20L493.75 268.20Q493.24 267.99 492.78 267.76Q492.32 267.53 492.02 267.24Q491.73 266.94 491.73 266.57L491.73 266.57Q491.73 266.08 492.11 265.85Q492.49 265.62 493.01 265.62L493.01 265.62Q493.77 265.62 494.36 265.98Q494.96 266.33 495.36 266.88L495.36 266.88L496.71 266.02Q496.41 265.47 495.89 265.05Q495.36 264.63 494.68 264.38Q494.00 264.13 493.22 264.13L493.22 264.13Q492.44 264.13 491.72 264.40Q490.99 264.68 490.54 265.24Q490.09 265.81 490.09 266.67L490.09 266.67Q490.09 267.51 490.52 268.07Q490.95 268.62 491.59 268.97Q492.23 269.32 492.86 269.57L492.86 269.57Q493.43 269.78 493.93 270.02Q494.44 270.26 494.76 270.61Q495.09 270.95 495.09 271.46L495.09 271.46Q495.09 272.03 494.68 272.35Q494.27 272.68 493.56 272.68L493.56 272.68Q492.97 272.68 492.47 272.46Q491.98 272.24 491.60 271.86Q491.23 271.48 490.93 271.04Z" fill="#9C9BA0"/><path d="M66.50 288.62L64.82 288.62L64.82 305L66.50 305L66.50 288.62ZM56.73 300.17L56.73 300.17Q56.73 301.72 57.39 302.86Q58.04 303.99 59.13 304.60Q60.22 305.21 61.52 305.21L61.52 305.21Q62.74 305.21 63.64 304.60Q64.55 303.99 65.06 302.86Q65.58 301.72 65.58 300.17L65.58 300.17Q65.58 298.60 65.06 297.47Q64.55 296.35 63.64 295.74Q62.74 295.13 61.52 295.13L61.52 295.13Q60.22 295.13 59.13 295.74Q58.04 296.35 57.39 297.47Q56.73 298.60 56.73 300.17ZM58.44 300.17L58.44 300.17Q58.44 299.06 58.89 298.28Q59.34 297.50 60.09 297.10Q60.85 296.70 61.73 296.70L61.73 296.70Q62.47 296.70 63.18 297.10Q63.90 297.50 64.36 298.28Q64.82 299.06 64.82 300.17L64.82 300.17Q64.82 301.28 64.36 302.06Q63.90 302.84 63.18 303.24Q62.47 303.63 61.73 303.63L61.73 303.63Q60.85 303.63 60.09 303.24Q59.34 302.84 58.89 302.06Q58.44 301.28 58.44 300.17ZM71.22 305L71.22 295.34L69.55 295.34L69.55 305L71.22 305ZM74.14 297.19L74.14 297.19L75.07 295.80Q74.69 295.40 74.24 295.27Q73.79 295.13 73.26 295.13L73.26 295.13Q72.59 295.13 71.94 295.65Q71.29 296.18 70.88 297.07Q70.47 297.96 70.47 299.12L70.47 299.12L71.22 299.12Q71.22 298.43 71.36 297.88Q71.50 297.33 71.86 297.02Q72.21 296.70 72.84 296.70L72.84 296.70Q73.26 296.70 73.53 296.82Q73.81 296.94 74.14 297.19ZM77.50 302.02L77.50 302.02Q77.50 301.49 77.76 301.12Q78.01 300.74 78.52 300.53Q79.04 300.32 79.86 300.32L79.86 300.32Q80.74 300.32 81.52 300.54Q82.29 300.76 83.03 301.26L83.03 301.26L83.03 300.27Q82.88 300.09 82.46 299.78Q82.04 299.48 81.34 299.24Q80.63 298.99 79.58 298.99L79.58 298.99Q77.80 298.99 76.80 299.84Q75.80 300.69 75.80 302.10L75.80 302.10Q75.80 303.09 76.27 303.78Q76.73 304.48 77.49 304.84Q78.26 305.21 79.14 305.21L79.14 305.21Q79.94 305.21 80.75 304.92Q81.56 304.62 82.11 304.01Q82.67 303.40 82.67 302.48L82.67 302.48L82.33 301.22Q82.33 301.98 81.97 302.55Q81.60 303.13 80.98 303.45Q80.36 303.76 79.58 303.76L79.58 303.76Q78.97 303.76 78.50 303.56Q78.03 303.36 77.77 302.96Q77.50 302.56 77.50 302.02ZM76.43 296.33L77.25 297.57Q77.48 297.40 77.88 297.17Q78.28 296.94 78.86 296.77Q79.44 296.60 80.15 296.60L80.15 296.60Q80.59 296.60 80.99 296.68Q81.39 296.77 81.69 296.96Q82.00 297.15 82.17 297.47Q82.33 297.80 82.33 298.30L82.33 298.30L82.33 305L84.01 305L84.01 298.07Q84.01 297.13 83.54 296.47Q83.07 295.82 82.22 295.48Q81.37 295.13 80.23 295.13L80.23 295.13Q78.89 295.13 77.93 295.53Q76.98 295.93 76.43 296.33L76.43 296.33ZM87.16 295.34L85.27 295.34L89.47 305.74L92.22 298.70L95.14 305.74L99.34 295.34L97.45 295.34L95.02 301.66L92.20 294.61L89.58 301.62L87.16 295.34ZM107.22 299.12L107.22 299.12L107.22 305L108.90 305L108.90 298.91Q108.90 297.17 108.01 296.15Q107.11 295.13 105.58 295.13L105.58 295.13Q104.64 295.13 103.91 295.55Q103.19 295.97 102.70 296.85L102.70 296.85L102.70 295.34L101.02 295.34L101.02 305L102.70 305L102.70 299.12Q102.70 298.41 103.01 297.86Q103.31 297.31 103.87 297.01Q104.43 296.70 105.16 296.70L105.16 296.70Q106.17 296.70 106.69 297.31Q107.22 297.92 107.22 299.12ZM122.44 295.34L117.61 295.34L117.61 296.92L122.44 296.92L122.44 295.34ZM122.28 290.64L122.28 290.64L123.20 289.25Q123.05 289.04 122.79 288.85Q122.53 288.66 122.17 288.54Q121.81 288.41 121.35 288.41L121.35 288.41Q120.47 288.41 119.85 288.78Q119.23 289.14 118.89 289.88Q118.56 290.62 118.56 291.77L118.56 291.77L118.56 305L120.24 305L120.24 291.98Q120.24 291.29 120.36 290.87Q120.49 290.45 120.71 290.27Q120.93 290.09 121.25 290.09L121.25 290.09Q121.50 290.09 121.78 290.18Q122.07 290.28 122.28 290.64ZM126.03 305L126.03 295.34L124.36 295.34L124.36 305L126.03 305ZM128.95 297.19L128.95 297.19L129.88 295.80Q129.50 295.40 129.05 295.27Q128.60 295.13 128.07 295.13L128.07 295.13Q127.40 295.13 126.75 295.65Q126.10 296.18 125.69 297.07Q125.28 297.96 125.28 299.12L125.28 299.12L126.03 299.12Q126.03 298.43 126.17 297.88Q126.31 297.33 126.67 297.02Q127.02 296.70 127.65 296.70L127.65 296.70Q128.07 296.70 128.34 296.82Q128.62 296.94 128.95 297.19ZM130.40 300.17L130.40 300.17Q130.40 301.62 131.06 302.76Q131.73 303.91 132.86 304.56Q133.99 305.21 135.40 305.21L135.40 305.21Q136.83 305.21 137.95 304.56Q139.08 303.91 139.74 302.76Q140.40 301.62 140.40 300.17L140.40 300.17Q140.40 298.70 139.74 297.57Q139.08 296.43 137.95 295.78Q136.83 295.13 135.40 295.13L135.40 295.13Q133.99 295.13 132.86 295.78Q131.73 296.43 131.06 297.57Q130.40 298.70 130.40 300.17ZM132.10 300.17L132.10 300.17Q132.10 299.16 132.53 298.37Q132.97 297.59 133.71 297.15Q134.46 296.70 135.40 296.70L135.40 296.70Q136.35 296.70 137.09 297.15Q137.84 297.59 138.27 298.37Q138.70 299.16 138.70 300.17L138.70 300.17Q138.70 301.18 138.27 301.95Q137.84 302.73 137.09 303.18Q136.35 303.63 135.40 303.63L135.40 303.63Q134.46 303.63 133.71 303.18Q132.97 302.73 132.53 301.95Q132.10 301.18 132.10 300.17ZM155.94 305L155.94 298.91Q155.94 297.71 155.57 296.86Q155.20 296.01 154.51 295.57Q153.82 295.13 152.83 295.13L152.83 295.13Q151.87 295.13 151.11 295.58Q150.35 296.03 149.85 296.94L149.85 296.94Q149.51 296.07 148.79 295.60Q148.06 295.13 147.06 295.13L147.06 295.13Q146.15 295.13 145.49 295.53Q144.83 295.93 144.39 296.75L144.39 296.75L144.39 295.34L142.71 295.34L142.71 305L144.39 305L144.39 299.12Q144.39 298.36 144.66 297.82Q144.94 297.27 145.44 296.99Q145.94 296.70 146.64 296.70L146.64 296.70Q147.58 296.70 148.03 297.29Q148.48 297.88 148.48 299.12L148.48 299.12L148.48 305L150.16 305L150.16 299.12Q150.16 298.36 150.44 297.82Q150.71 297.27 151.21 296.99Q151.72 296.70 152.41 296.70L152.41 296.70Q153.36 296.70 153.81 297.29Q154.26 297.88 154.26 299.12L154.26 299.12L154.26 305L155.94 305ZM164.55 300.17L164.55 300.17Q164.55 301.62 165.21 302.76Q165.87 303.91 167.01 304.56Q168.14 305.21 169.55 305.21L169.55 305.21Q170.98 305.21 172.10 304.56Q173.22 303.91 173.88 302.76Q174.55 301.62 174.55 300.17L174.55 300.17Q174.55 298.70 173.88 297.57Q173.22 296.43 172.10 295.78Q170.98 295.13 169.55 295.13L169.55 295.13Q168.14 295.13 167.01 295.78Q165.87 296.43 165.21 297.57Q164.55 298.70 164.55 300.17ZM166.25 300.17L166.25 300.17Q166.25 299.16 166.68 298.37Q167.11 297.59 167.86 297.15Q168.60 296.70 169.55 296.70L169.55 296.70Q170.49 296.70 171.24 297.15Q171.98 297.59 172.41 298.37Q172.84 299.16 172.84 300.17L172.84 300.17Q172.84 301.18 172.41 301.95Q171.98 302.73 171.24 303.18Q170.49 303.63 169.55 303.63L169.55 303.63Q168.60 303.63 167.86 303.18Q167.11 302.73 166.68 301.95Q166.25 301.18 166.25 300.17ZM183.05 299.12L183.05 299.12L183.05 305L184.73 305L184.73 298.91Q184.73 297.17 183.84 296.15Q182.94 295.13 181.41 295.13L181.41 295.13Q180.47 295.13 179.74 295.55Q179.02 295.97 178.53 296.85L178.53 296.85L178.53 295.34L176.85 295.34L176.85 305L178.53 305L178.53 299.12Q178.53 298.41 178.84 297.86Q179.14 297.31 179.70 297.01Q180.26 296.70 180.99 296.70L180.99 296.70Q182 296.70 182.53 297.31Q183.05 297.92 183.05 299.12ZM191.62 305.21L191.62 305.21Q193.17 305.21 194.32 304.59Q195.46 303.97 196.22 302.75L196.22 302.75L194.85 301.89Q194.33 302.77 193.57 303.20Q192.81 303.63 191.83 303.63L191.83 303.63Q190.84 303.63 190.15 303.21Q189.46 302.80 189.10 302.00Q188.74 301.20 188.74 300.06L188.74 300.06Q188.76 298.95 189.13 298.19Q189.50 297.42 190.18 297.01Q190.86 296.60 191.83 296.60L191.83 296.60Q192.65 296.60 193.26 296.96Q193.87 297.31 194.21 297.94Q194.56 298.57 194.56 299.44L194.56 299.44Q194.56 299.58 194.50 299.80Q194.43 300.02 194.37 300.13L194.37 300.13L195.04 299.16L188.11 299.16L188.11 300.59L196.36 300.59Q196.36 300.55 196.37 300.39Q196.39 300.23 196.39 300.09L196.39 300.09Q196.39 298.55 195.84 297.44Q195.29 296.33 194.27 295.73Q193.26 295.13 191.83 295.13L191.83 295.13Q190.40 295.13 189.32 295.76Q188.24 296.39 187.64 297.52Q187.04 298.66 187.04 300.17L187.04 300.17Q187.04 301.66 187.62 302.80Q188.19 303.93 189.23 304.57Q190.27 305.21 191.62 305.21ZM214.42 300.17L214.42 300.17Q214.42 298.70 213.86 297.59Q213.29 296.47 212.29 295.84Q211.30 295.21 210.04 295.21L210.04 295.21Q209.49 295.21 208.93 295.35Q208.38 295.49 207.85 295.76L207.85 295.76L208.84 291.88L214.38 291.88L214.38 290.30L207.45 290.30L205.52 298.13Q206.28 297.61 206.85 297.32Q207.43 297.04 208.01 296.93Q208.59 296.81 209.28 296.81L209.28 296.81Q210.22 296.81 210.97 297.23Q211.72 297.65 212.15 298.41Q212.58 299.16 212.58 300.17L212.58 300.17Q212.58 301.18 212.19 301.93Q211.80 302.69 211.06 303.11Q210.33 303.53 209.28 303.53L209.28 303.53Q208.48 303.53 207.75 303.18Q207.01 302.84 206.45 302.28Q205.90 301.72 205.56 301.09L205.56 301.09L204.05 302.12Q204.53 302.96 205.24 303.67Q205.94 304.37 206.94 304.79Q207.94 305.21 209.28 305.21L209.28 305.21Q210.35 305.21 211.27 304.89Q212.20 304.58 212.91 303.95Q213.63 303.32 214.03 302.38Q214.42 301.43 214.42 300.17ZM216.63 303.36L217.81 304.54L221.52 300.72L225.24 304.54L226.42 303.36L222.59 299.64L226.42 295.93L225.24 294.75L221.52 298.57L217.81 294.75L216.63 295.93L220.45 299.64L216.63 303.36ZM228.41 290.30L228.41 291.98L236.03 291.98L229.80 305L231.66 305L238.70 290.30L228.41 290.30ZM250.78 295.34L245.95 295.34L245.95 296.92L250.78 296.92L250.78 295.34ZM250.61 290.64L250.61 290.64L251.53 289.25Q251.38 289.04 251.12 288.85Q250.86 288.66 250.50 288.54Q250.15 288.41 249.68 288.41L249.68 288.41Q248.80 288.41 248.18 288.78Q247.56 289.14 247.23 289.88Q246.89 290.62 246.89 291.77L246.89 291.77L246.89 305L248.57 305L248.57 291.98Q248.57 291.29 248.70 290.87Q248.82 290.45 249.04 290.27Q249.26 290.09 249.58 290.09L249.58 290.09Q249.83 290.09 250.11 290.18Q250.40 290.28 250.61 290.64ZM251.85 300.17L251.85 300.17Q251.85 301.62 252.51 302.76Q253.17 303.91 254.30 304.56Q255.44 305.21 256.84 305.21L256.84 305.21Q258.27 305.21 259.40 304.56Q260.52 303.91 261.18 302.76Q261.84 301.62 261.84 300.17L261.84 300.17Q261.84 298.70 261.18 297.57Q260.52 296.43 259.40 295.78Q258.27 295.13 256.84 295.13L256.84 295.13Q255.44 295.13 254.30 295.78Q253.17 296.43 252.51 297.57Q251.85 298.70 251.85 300.17ZM253.55 300.17L253.55 300.17Q253.55 299.16 253.98 298.37Q254.41 297.59 255.15 297.15Q255.90 296.70 256.84 296.70L256.84 296.70Q257.79 296.70 258.53 297.15Q259.28 297.59 259.71 298.37Q260.14 299.16 260.14 300.17L260.14 300.17Q260.14 301.18 259.71 301.95Q259.28 302.73 258.53 303.18Q257.79 303.63 256.84 303.63L256.84 303.63Q255.90 303.63 255.15 303.18Q254.41 302.73 253.98 301.95Q253.55 301.18 253.55 300.17ZM270.35 299.12L270.35 299.12L270.35 305L272.03 305L272.03 298.91Q272.03 297.17 271.13 296.15Q270.24 295.13 268.71 295.13L268.71 295.13Q267.76 295.13 267.04 295.55Q266.31 295.97 265.83 296.85L265.83 296.85L265.83 295.34L264.15 295.34L264.15 305L265.83 305L265.83 299.12Q265.83 298.41 266.14 297.86Q266.44 297.31 267.00 297.01Q267.55 296.70 268.29 296.70L268.29 296.70Q269.30 296.70 269.82 297.31Q270.35 297.92 270.35 299.12ZM278.54 295.34L273.71 295.34L273.71 296.92L278.54 296.92L278.54 295.34ZM276.96 291.98L275.28 291.98L275.28 305L276.96 305L276.96 291.98ZM280.64 304.16L280.64 304.16Q280.64 304.62 280.98 304.97Q281.33 305.31 281.79 305.31L281.79 305.31Q282.28 305.31 282.61 304.97Q282.95 304.62 282.95 304.16L282.95 304.16Q282.95 303.68 282.61 303.34Q282.28 303.00 281.79 303.00L281.79 303.00Q281.33 303.00 280.98 303.34Q280.64 303.68 280.64 304.16Z" fill="#9C9BA0"/><g transform="translate(640 60)"><g fill="#F2F1EF"><circle cx="10.3" cy="89.1" r="3.70"/><circle cx="10.3" cy="99.4" r="3.70"/><circle cx="10.3" cy="109.7" r="3.70"/><circle cx="10.3" cy="120.0" r="3.70"/><circle cx="10.3" cy="130.3" r="3.70"/><circle cx="10.3" cy="140.6" r="3.70"/><circle cx="10.3" cy="150.9" r="3.70"/><circle cx="20.6" cy="150.9" r="3.70"/><circle cx="30.9" cy="150.9" r="3.70"/><circle cx="41.1" cy="150.9" r="3.70"/><circle cx="51.4" cy="150.9" r="3.70"/><circle cx="72.0" cy="89.1" r="3.70"/><circle cx="113.1" cy="89.1" r="3.70"/><circle cx="72.0" cy="99.4" r="3.70"/><circle cx="113.1" cy="99.4" r="3.70"/><circle cx="72.0" cy="109.7" r="3.70"/><circle cx="113.1" cy="109.7" r="3.70"/><circle cx="72.0" cy="120.0" r="3.70"/><circle cx="113.1" cy="120.0" r="3.70"/><circle cx="72.0" cy="130.3" r="3.70"/><circle cx="113.1" cy="130.3" r="3.70"/><circle cx="72.0" cy="140.6" r="3.70"/><circle cx="113.1" cy="140.6" r="3.70"/><circle cx="82.3" cy="150.9" r="3.70"/><circle cx="92.6" cy="150.9" r="3.70"/><circle cx="102.9" cy="150.9" r="3.70"/><circle cx="133.7" cy="89.1" r="3.70"/><circle cx="174.9" cy="89.1" r="3.70"/><circle cx="133.7" cy="99.4" r="3.70"/><circle cx="144.0" cy="99.4" r="3.70"/><circle cx="164.6" cy="99.4" r="3.70"/><circle cx="174.9" cy="99.4" r="3.70"/><circle cx="133.7" cy="109.7" r="3.70"/><circle cx="154.3" cy="109.7" r="3.70"/><circle cx="174.9" cy="109.7" r="3.70"/><circle cx="133.7" cy="120.0" r="3.70"/><circle cx="154.3" cy="120.0" r="3.70"/><circle cx="174.9" cy="120.0" r="3.70"/><circle cx="133.7" cy="130.3" r="3.70"/><circle cx="174.9" cy="130.3" r="3.70"/><circle cx="133.7" cy="140.6" r="3.70"/><circle cx="174.9" cy="140.6" r="3.70"/><circle cx="133.7" cy="150.9" r="3.70"/><circle cx="174.9" cy="150.9" r="3.70"/><circle cx="195.4" cy="89.1" r="3.70"/><circle cx="205.7" cy="89.1" r="3.70"/><circle cx="216.0" cy="89.1" r="3.70"/><circle cx="226.3" cy="89.1" r="3.70"/><circle cx="236.6" cy="89.1" r="3.70"/><circle cx="195.4" cy="99.4" r="3.70"/><circle cx="195.4" cy="109.7" r="3.70"/><circle cx="195.4" cy="120.0" r="3.70"/><circle cx="205.7" cy="120.0" r="3.70"/><circle cx="216.0" cy="120.0" r="3.70"/><circle cx="226.3" cy="120.0" r="3.70"/><circle cx="195.4" cy="130.3" r="3.70"/><circle cx="195.4" cy="140.6" r="3.70"/><circle cx="195.4" cy="150.9" r="3.70"/><circle cx="205.7" cy="150.9" r="3.70"/><circle cx="216.0" cy="150.9" r="3.70"/><circle cx="226.3" cy="150.9" r="3.70"/><circle cx="236.6" cy="150.9" r="3.70"/><circle cx="288.0" cy="89.1" r="3.70"/><circle cx="298.3" cy="89.1" r="3.70"/><circle cx="308.6" cy="89.1" r="3.70"/><circle cx="298.3" cy="99.4" r="3.70"/><circle cx="298.3" cy="109.7" r="3.70"/><circle cx="298.3" cy="120.0" r="3.70"/><circle cx="298.3" cy="130.3" r="3.70"/><circle cx="298.3" cy="140.6" r="3.70"/><circle cx="288.0" cy="150.9" r="3.70"/><circle cx="298.3" cy="150.9" r="3.70"/><circle cx="308.6" cy="150.9" r="3.70"/><circle cx="329.1" cy="89.1" r="3.70"/><circle cx="370.3" cy="89.1" r="3.70"/><circle cx="329.1" cy="99.4" r="3.70"/><circle cx="339.4" cy="99.4" r="3.70"/><circle cx="370.3" cy="99.4" r="3.70"/><circle cx="329.1" cy="109.7" r="3.70"/><circle cx="349.7" cy="109.7" r="3.70"/><circle cx="370.3" cy="109.7" r="3.70"/><circle cx="329.1" cy="120.0" r="3.70"/><circle cx="360.0" cy="120.0" r="3.70"/><circle cx="370.3" cy="120.0" r="3.70"/><circle cx="329.1" cy="130.3" r="3.70"/><circle cx="370.3" cy="130.3" r="3.70"/><circle cx="329.1" cy="140.6" r="3.70"/><circle cx="370.3" cy="140.6" r="3.70"/><circle cx="329.1" cy="150.9" r="3.70"/><circle cx="370.3" cy="150.9" r="3.70"/><circle cx="401.1" cy="89.1" r="3.70"/><circle cx="411.4" cy="89.1" r="3.70"/><circle cx="421.7" cy="89.1" r="3.70"/><circle cx="390.9" cy="99.4" r="3.70"/><circle cx="432.0" cy="99.4" r="3.70"/><circle cx="390.9" cy="109.7" r="3.70"/><circle cx="390.9" cy="120.0" r="3.70"/><circle cx="390.9" cy="130.3" r="3.70"/><circle cx="390.9" cy="140.6" r="3.70"/><circle cx="432.0" cy="140.6" r="3.70"/><circle cx="401.1" cy="150.9" r="3.70"/><circle cx="411.4" cy="150.9" r="3.70"/><circle cx="421.7" cy="150.9" r="3.70"/><circle cx="452.6" cy="150.9" r="3.70"/></g><rect x="470.1" y="84.0" width="26.7" height="72.0" fill="#E06A43"><animate attributeName="opacity" values="1;1;0;0" keyTimes="0;0.5;0.5;1" dur="1.1s" repeatCount="indefinite"/></rect><path d="M80.07 193.50L77.34 201.22L74.22 192.97L71.16 201.22L68.37 193.50L66.95 193.50L71.07 204.53L74.22 196.37L77.37 204.53L81.50 193.50L80.07 193.50ZM84.45 202.80L84.45 204L89.75 204L89.75 202.80L84.45 202.80ZM84.45 193.50L84.45 194.70L89.75 194.70L89.75 193.50L84.45 193.50ZM84.45 197.70L84.45 198.90L89.45 198.90L89.45 197.70L84.45 197.70ZM85.02 193.50L83.75 193.50L83.75 204L85.02 204L85.02 193.50ZM93.90 197.75L93.90 198.45L95.60 198.45Q96.54 198.45 97.24 198.18Q97.94 197.91 98.33 197.38Q98.72 196.86 98.72 196.13L98.72 196.13Q98.72 195.22 98.33 194.65Q97.94 194.07 97.24 193.78Q96.54 193.50 95.60 193.50L95.60 193.50L92.90 193.50L92.90 204L95.75 204Q96.77 204 97.57 203.66Q98.37 203.32 98.84 202.64Q99.32 201.96 99.32 200.93L99.32 200.93Q99.32 200.21 99.05 199.68Q98.78 199.16 98.29 198.82Q97.80 198.48 97.16 198.31Q96.51 198.15 95.75 198.15L95.75 198.15L93.90 198.15L93.90 198.85L95.75 198.85Q96.26 198.85 96.68 198.98Q97.10 199.11 97.40 199.37Q97.71 199.62 97.88 200.00Q98.04 200.37 98.04 200.85L98.04 200.85Q98.04 201.50 97.75 201.94Q97.46 202.40 96.94 202.63Q96.42 202.88 95.75 202.88L95.75 202.88L94.17 202.88L94.17 194.63L95.60 194.63Q96.39 194.63 96.92 195.04Q97.44 195.45 97.44 196.20L97.44 196.20Q97.44 196.69 97.20 197.04Q96.96 197.38 96.54 197.56Q96.12 197.75 95.60 197.75L95.60 197.75L93.90 197.75ZM102.56 200.82L102.56 200.82L101.54 201.51Q101.88 202.20 102.43 202.81Q102.98 203.41 103.70 203.78Q104.43 204.15 105.29 204.15L105.29 204.15Q105.92 204.15 106.49 203.94Q107.07 203.73 107.53 203.34Q107.99 202.95 108.25 202.40Q108.51 201.84 108.51 201.15L108.51 201.15Q108.51 200.43 108.26 199.91Q108.00 199.40 107.60 199.03Q107.21 198.66 106.74 198.42Q106.28 198.18 105.86 198.03L105.86 198.03Q104.94 197.72 104.41 197.39Q103.88 197.07 103.65 196.70Q103.43 196.34 103.43 195.90L103.43 195.90Q103.43 195.39 103.82 194.98Q104.21 194.56 105.06 194.56L105.06 194.56Q105.68 194.56 106.10 194.81Q106.53 195.04 106.83 195.42Q107.13 195.79 107.33 196.19L107.33 196.19L108.42 195.56Q108.17 195 107.72 194.50Q107.27 194.00 106.63 193.67Q105.99 193.35 105.14 193.35L105.14 193.35Q104.25 193.35 103.56 193.70Q102.87 194.06 102.48 194.67Q102.09 195.28 102.09 196.06L102.09 196.06Q102.09 196.78 102.37 197.28Q102.65 197.78 103.08 198.11Q103.52 198.45 104.00 198.67Q104.48 198.88 104.87 199.02L104.87 199.02Q105.47 199.23 106.00 199.49Q106.53 199.75 106.86 200.18Q107.19 200.59 107.19 201.30L107.19 201.30Q107.19 202.02 106.68 202.49Q106.17 202.95 105.33 202.95L105.33 202.95Q104.70 202.95 104.21 202.68Q103.71 202.41 103.31 201.93Q102.92 201.45 102.56 200.82ZM112.56 193.50L111.29 193.50L111.29 204L112.56 204L112.56 193.50ZM114.81 193.50L114.81 194.70L117.51 194.70L117.51 204L118.79 204L118.79 194.70L121.49 194.70L121.49 193.50L114.81 193.50ZM124.44 202.80L124.44 204L129.74 204L129.74 202.80L124.44 202.80ZM124.44 193.50L124.44 194.70L129.74 194.70L129.74 193.50L124.44 193.50ZM124.44 197.70L124.44 198.90L129.44 198.90L129.44 197.70L124.44 197.70ZM125.01 193.50L123.74 193.50L123.74 204L125.01 204L125.01 193.50ZM133.28 200.82L133.28 200.82L132.26 201.51Q132.60 202.20 133.15 202.81Q133.70 203.41 134.42 203.78Q135.15 204.15 136.01 204.15L136.01 204.15Q136.64 204.15 137.21 203.94Q137.79 203.73 138.25 203.34Q138.71 202.95 138.97 202.40Q139.23 201.84 139.23 201.15L139.23 201.15Q139.23 200.43 138.98 199.91Q138.72 199.40 138.32 199.03Q137.93 198.66 137.46 198.42Q137.00 198.18 136.58 198.03L136.58 198.03Q135.66 197.72 135.13 197.39Q134.60 197.07 134.37 196.70Q134.15 196.34 134.15 195.90L134.15 195.90Q134.15 195.39 134.54 194.98Q134.93 194.56 135.78 194.56L135.78 194.56Q136.40 194.56 136.82 194.81Q137.25 195.04 137.55 195.42Q137.85 195.79 138.05 196.19L138.05 196.19L139.14 195.56Q138.89 195 138.44 194.50Q137.99 194.00 137.35 193.67Q136.71 193.35 135.86 193.35L135.86 193.35Q134.97 193.35 134.28 193.70Q133.59 194.06 133.20 194.67Q132.81 195.28 132.81 196.06L132.81 196.06Q132.81 196.78 133.09 197.28Q133.37 197.78 133.80 198.11Q134.24 198.45 134.72 198.67Q135.20 198.88 135.59 199.02L135.59 199.02Q136.19 199.23 136.72 199.49Q137.25 199.75 137.58 200.18Q137.91 200.59 137.91 201.30L137.91 201.30Q137.91 202.02 137.40 202.49Q136.89 202.95 136.05 202.95L136.05 202.95Q135.42 202.95 134.93 202.68Q134.43 202.41 134.03 201.93Q133.64 201.45 133.28 200.82ZM153.03 200.40L153.03 200.40Q153.03 200.73 153.28 200.98Q153.53 201.22 153.86 201.22L153.86 201.22Q154.20 201.22 154.44 200.98Q154.68 200.73 154.68 200.40L154.68 200.40Q154.68 200.06 154.44 199.81Q154.20 199.57 153.86 199.57L153.86 199.57Q153.53 199.57 153.28 199.81Q153.03 200.06 153.03 200.40ZM181.08 193.50L178.35 201.22L175.23 192.97L172.17 201.22L169.38 193.50L167.96 193.50L172.08 204.53L175.23 196.37L178.38 204.53L182.51 193.50L181.08 193.50ZM185.46 202.80L185.46 204L190.76 204L190.76 202.80L185.46 202.80ZM185.46 193.50L185.46 194.70L190.76 194.70L190.76 193.50L185.46 193.50ZM185.46 197.70L185.46 198.90L190.46 198.90L190.46 197.70L185.46 197.70ZM186.03 193.50L184.76 193.50L184.76 204L186.03 204L186.03 193.50ZM194.91 197.75L194.91 198.45L196.61 198.45Q197.55 198.45 198.25 198.18Q198.95 197.91 199.34 197.38Q199.73 196.86 199.73 196.13L199.73 196.13Q199.73 195.22 199.34 194.65Q198.95 194.07 198.25 193.78Q197.55 193.50 196.61 193.50L196.61 193.50L193.91 193.50L193.91 204L196.76 204Q197.78 204 198.58 203.66Q199.38 203.32 199.85 202.64Q200.33 201.96 200.33 200.93L200.33 200.93Q200.33 200.21 200.06 199.68Q199.79 199.16 199.30 198.82Q198.81 198.48 198.17 198.31Q197.52 198.15 196.76 198.15L196.76 198.15L194.91 198.15L194.91 198.85L196.76 198.85Q197.27 198.85 197.69 198.98Q198.11 199.11 198.41 199.37Q198.72 199.62 198.89 200.00Q199.05 200.37 199.05 200.85L199.05 200.85Q199.05 201.50 198.76 201.94Q198.47 202.40 197.95 202.63Q197.43 202.88 196.76 202.88L196.76 202.88L195.18 202.88L195.18 194.63L196.61 194.63Q197.40 194.63 197.93 195.04Q198.45 195.45 198.45 196.20L198.45 196.20Q198.45 196.69 198.21 197.04Q197.97 197.38 197.55 197.56Q197.13 197.75 196.61 197.75L196.61 197.75L194.91 197.75ZM210.03 199.65L209.58 200.85L215.13 200.85L214.68 199.65L210.03 199.65ZM210.56 200.04L212.33 195.87L214.13 200.10L214.25 200.40L215.78 204L217.20 204L212.33 192.97L207.45 204L208.88 204L210.44 200.31L210.56 200.04ZM220.65 193.50L219.38 193.50L219.38 204L220.65 204L220.65 193.50ZM220.08 193.50L220.08 194.70L222.23 194.70Q223.25 194.70 223.88 195.19Q224.52 195.68 224.52 196.65L224.52 196.65Q224.52 197.61 223.88 198.10Q223.25 198.60 222.23 198.60L222.23 198.60L220.08 198.60L220.08 199.80L222.23 199.80Q223.25 199.80 224.05 199.42Q224.85 199.03 225.32 198.32Q225.80 197.61 225.80 196.65L225.80 196.65Q225.80 195.68 225.32 194.97Q224.85 194.26 224.05 193.88Q223.25 193.50 222.23 193.50L222.23 193.50L220.08 193.50ZM229.77 193.50L228.50 193.50L228.50 204L229.77 204L229.77 193.50ZM229.20 193.50L229.20 194.70L231.35 194.70Q232.37 194.70 233.00 195.19Q233.64 195.68 233.64 196.65L233.64 196.65Q233.64 197.61 233.00 198.10Q232.37 198.60 231.35 198.60L231.35 198.60L229.20 198.60L229.20 199.80L231.35 199.80Q232.37 199.80 233.17 199.42Q233.97 199.03 234.44 198.32Q234.92 197.61 234.92 196.65L234.92 196.65Q234.92 195.68 234.44 194.97Q233.97 194.26 233.17 193.88Q232.37 193.50 231.35 193.50L231.35 193.50L229.20 193.50ZM238.01 200.82L238.01 200.82L236.99 201.51Q237.33 202.20 237.88 202.81Q238.43 203.41 239.15 203.78Q239.88 204.15 240.74 204.15L240.74 204.15Q241.37 204.15 241.94 203.94Q242.52 203.73 242.98 203.34Q243.44 202.95 243.70 202.40Q243.96 201.84 243.96 201.15L243.96 201.15Q243.96 200.43 243.71 199.91Q243.45 199.40 243.05 199.03Q242.66 198.66 242.19 198.42Q241.73 198.18 241.31 198.03L241.31 198.03Q240.39 197.72 239.86 197.39Q239.33 197.07 239.10 196.70Q238.88 196.34 238.88 195.90L238.88 195.90Q238.88 195.39 239.27 194.98Q239.66 194.56 240.51 194.56L240.51 194.56Q241.13 194.56 241.55 194.81Q241.98 195.04 242.28 195.42Q242.58 195.79 242.78 196.19L242.78 196.19L243.87 195.56Q243.62 195 243.17 194.50Q242.72 194.00 242.08 193.67Q241.44 193.35 240.59 193.35L240.59 193.35Q239.70 193.35 239.01 193.70Q238.32 194.06 237.93 194.67Q237.54 195.28 237.54 196.06L237.54 196.06Q237.54 196.78 237.82 197.28Q238.10 197.78 238.53 198.11Q238.97 198.45 239.45 198.67Q239.93 198.88 240.32 199.02L240.32 199.02Q240.92 199.23 241.45 199.49Q241.98 199.75 242.31 200.18Q242.64 200.59 242.64 201.30L242.64 201.30Q242.64 202.02 242.13 202.49Q241.62 202.95 240.78 202.95L240.78 202.95Q240.15 202.95 239.66 202.68Q239.16 202.41 238.76 201.93Q238.37 201.45 238.01 200.82ZM257.76 200.40L257.76 200.40Q257.76 200.73 258.01 200.98Q258.26 201.22 258.59 201.22L258.59 201.22Q258.93 201.22 259.17 200.98Q259.41 200.73 259.41 200.40L259.41 200.40Q259.41 200.06 259.17 199.81Q258.93 199.57 258.59 199.57L258.59 199.57Q258.26 199.57 258.01 199.81Q257.76 200.06 257.76 200.40ZM274.41 204L275.19 196.91L278.61 203.03L282.03 196.91L282.81 204L284.09 204L282.81 192.97L278.61 200.58L274.41 192.97L273.14 204L274.41 204ZM287.54 198.75L287.54 198.75Q287.54 197.56 288.05 196.63Q288.57 195.71 289.47 195.16Q290.37 194.63 291.51 194.63L291.51 194.63Q292.67 194.63 293.56 195.16Q294.45 195.71 294.97 196.63Q295.49 197.56 295.49 198.75L295.49 198.75Q295.49 199.94 294.97 200.87Q294.45 201.79 293.56 202.34Q292.67 202.88 291.51 202.88L291.51 202.88Q290.37 202.88 289.47 202.34Q288.57 201.79 288.05 200.87Q287.54 199.94 287.54 198.75ZM286.19 198.75L286.19 198.75Q286.19 199.89 286.58 200.88Q286.98 201.87 287.70 202.60Q288.42 203.32 289.40 203.74Q290.37 204.15 291.51 204.15L291.51 204.15Q292.67 204.15 293.63 203.74Q294.60 203.32 295.32 202.60Q296.04 201.87 296.44 200.88Q296.84 199.89 296.84 198.75L296.84 198.75Q296.84 197.59 296.44 196.61Q296.04 195.63 295.32 194.90Q294.60 194.18 293.63 193.76Q292.67 193.35 291.51 193.35L291.51 193.35Q290.37 193.35 289.40 193.76Q288.42 194.18 287.70 194.90Q286.98 195.63 286.58 196.61Q286.19 197.59 286.19 198.75ZM300.54 197.75L300.54 198.45L302.24 198.45Q303.18 198.45 303.88 198.18Q304.58 197.91 304.97 197.38Q305.36 196.86 305.36 196.13L305.36 196.13Q305.36 195.22 304.97 194.65Q304.58 194.07 303.88 193.78Q303.18 193.50 302.24 193.50L302.24 193.50L299.54 193.50L299.54 204L302.39 204Q303.41 204 304.21 203.66Q305.01 203.32 305.48 202.64Q305.96 201.96 305.96 200.93L305.96 200.93Q305.96 200.21 305.69 199.68Q305.42 199.16 304.93 198.82Q304.44 198.48 303.80 198.31Q303.15 198.15 302.39 198.15L302.39 198.15L300.54 198.15L300.54 198.85L302.39 198.85Q302.90 198.85 303.32 198.98Q303.74 199.11 304.04 199.37Q304.35 199.62 304.52 200.00Q304.68 200.37 304.68 200.85L304.68 200.85Q304.68 201.50 304.39 201.94Q304.10 202.40 303.58 202.63Q303.06 202.88 302.39 202.88L302.39 202.88L300.81 202.88L300.81 194.63L302.24 194.63Q303.03 194.63 303.56 195.04Q304.08 195.45 304.08 196.20L304.08 196.20Q304.08 196.69 303.84 197.04Q303.60 197.38 303.18 197.56Q302.76 197.75 302.24 197.75L302.24 197.75L300.54 197.75ZM310.08 193.50L308.81 193.50L308.81 204L310.08 204L310.08 193.50ZM314.66 193.50L313.38 193.50L313.38 204L318.78 204L318.78 202.80L314.66 202.80L314.66 193.50ZM321.74 202.80L321.74 204L327.03 204L327.03 202.80L321.74 202.80ZM321.74 193.50L321.74 194.70L327.03 194.70L327.03 193.50L321.74 193.50ZM321.74 197.70L321.74 198.90L326.73 198.90L326.73 197.70L321.74 197.70ZM322.31 193.50L321.03 193.50L321.03 204L322.31 204L322.31 193.50ZM337.04 199.65L336.59 200.85L342.14 200.85L341.69 199.65L337.04 199.65ZM337.56 200.04L339.33 195.87L341.13 200.10L341.25 200.40L342.78 204L344.21 204L339.33 192.97L334.46 204L335.88 204L337.44 200.31L337.56 200.04ZM347.66 193.50L346.38 193.50L346.38 204L347.66 204L347.66 193.50ZM347.09 193.50L347.09 194.70L349.23 194.70Q350.25 194.70 350.89 195.19Q351.53 195.68 351.53 196.65L351.53 196.65Q351.53 197.61 350.89 198.10Q350.25 198.60 349.23 198.60L349.23 198.60L347.09 198.60L347.09 199.80L349.23 199.80Q350.25 199.80 351.05 199.42Q351.86 199.03 352.33 198.32Q352.80 197.61 352.80 196.65L352.80 196.65Q352.80 195.68 352.33 194.97Q351.86 194.26 351.05 193.88Q350.25 193.50 349.23 193.50L349.23 193.50L347.09 193.50ZM356.78 193.50L355.50 193.50L355.50 204L356.78 204L356.78 193.50ZM356.21 193.50L356.21 194.70L358.35 194.70Q359.37 194.70 360.01 195.19Q360.65 195.68 360.65 196.65L360.65 196.65Q360.65 197.61 360.01 198.10Q359.37 198.60 358.35 198.60L358.35 198.60L356.21 198.60L356.21 199.80L358.35 199.80Q359.37 199.80 360.17 199.42Q360.98 199.03 361.45 198.32Q361.92 197.61 361.92 196.65L361.92 196.65Q361.92 195.68 361.45 194.97Q360.98 194.26 360.17 193.88Q359.37 193.50 358.35 193.50L358.35 193.50L356.21 193.50ZM365.01 200.82L365.01 200.82L363.99 201.51Q364.34 202.20 364.88 202.81Q365.43 203.41 366.16 203.78Q366.89 204.15 367.74 204.15L367.74 204.15Q368.37 204.15 368.95 203.94Q369.53 203.73 369.98 203.34Q370.44 202.95 370.70 202.40Q370.97 201.84 370.97 201.15L370.97 201.15Q370.97 200.43 370.71 199.91Q370.46 199.40 370.06 199.03Q369.66 198.66 369.20 198.42Q368.73 198.18 368.31 198.03L368.31 198.03Q367.40 197.72 366.86 197.39Q366.33 197.07 366.11 196.70Q365.88 196.34 365.88 195.90L365.88 195.90Q365.88 195.39 366.27 194.98Q366.66 194.56 367.52 194.56L367.52 194.56Q368.13 194.56 368.56 194.81Q368.99 195.04 369.29 195.42Q369.59 195.79 369.78 196.19L369.78 196.19L370.88 195.56Q370.62 195 370.17 194.50Q369.72 194.00 369.08 193.67Q368.45 193.35 367.59 193.35L367.59 193.35Q366.71 193.35 366.02 193.70Q365.33 194.06 364.94 194.67Q364.55 195.28 364.55 196.06L364.55 196.06Q364.55 196.78 364.82 197.28Q365.10 197.78 365.54 198.11Q365.97 198.45 366.45 198.67Q366.93 198.88 367.32 199.02L367.32 199.02Q367.92 199.23 368.45 199.49Q368.99 199.75 369.32 200.18Q369.65 200.59 369.65 201.30L369.65 201.30Q369.65 202.02 369.14 202.49Q368.63 202.95 367.79 202.95L367.79 202.95Q367.16 202.95 366.66 202.68Q366.17 202.41 365.77 201.93Q365.37 201.45 365.01 200.82ZM384.77 200.40L384.77 200.40Q384.77 200.73 385.01 200.98Q385.26 201.22 385.59 201.22L385.59 201.22Q385.94 201.22 386.18 200.98Q386.42 200.73 386.42 200.40L386.42 200.40Q386.42 200.06 386.18 199.81Q385.94 199.57 385.59 199.57L385.59 199.57Q385.26 199.57 385.01 199.81Q384.77 200.06 384.77 200.40ZM401.74 197.75L401.74 198.45L403.44 198.45Q404.38 198.45 405.08 198.18Q405.78 197.91 406.17 197.38Q406.56 196.86 406.56 196.13L406.56 196.13Q406.56 195.22 406.17 194.65Q405.78 194.07 405.08 193.78Q404.38 193.50 403.44 193.50L403.44 193.50L400.74 193.50L400.74 204L403.59 204Q404.61 204 405.41 203.66Q406.21 203.32 406.69 202.64Q407.16 201.96 407.16 200.93L407.16 200.93Q407.16 200.21 406.89 199.68Q406.62 199.16 406.13 198.82Q405.64 198.48 405.00 198.31Q404.35 198.15 403.59 198.15L403.59 198.15L401.74 198.15L401.74 198.85L403.59 198.85Q404.10 198.85 404.52 198.98Q404.94 199.11 405.25 199.37Q405.55 199.62 405.72 200.00Q405.88 200.37 405.88 200.85L405.88 200.85Q405.88 201.50 405.59 201.94Q405.30 202.40 404.78 202.63Q404.26 202.88 403.59 202.88L403.59 202.88L402.01 202.88L402.01 194.63L403.44 194.63Q404.23 194.63 404.76 195.04Q405.28 195.45 405.28 196.20L405.28 196.20Q405.28 196.69 405.04 197.04Q404.80 197.38 404.38 197.56Q403.96 197.75 403.44 197.75L403.44 197.75L401.74 197.75ZM410.76 198.75L410.76 198.75Q410.76 197.56 411.28 196.63Q411.79 195.71 412.69 195.16Q413.59 194.63 414.73 194.63L414.73 194.63Q415.89 194.63 416.78 195.16Q417.67 195.71 418.19 196.63Q418.71 197.56 418.71 198.75L418.71 198.75Q418.71 199.94 418.19 200.87Q417.67 201.79 416.78 202.34Q415.89 202.88 414.73 202.88L414.73 202.88Q413.59 202.88 412.69 202.34Q411.79 201.79 411.28 200.87Q410.76 199.94 410.76 198.75ZM409.41 198.75L409.41 198.75Q409.41 199.89 409.81 200.88Q410.20 201.87 410.92 202.60Q411.64 203.32 412.62 203.74Q413.59 204.15 414.73 204.15L414.73 204.15Q415.89 204.15 416.86 203.74Q417.82 203.32 418.54 202.60Q419.26 201.87 419.66 200.88Q420.06 199.89 420.06 198.75L420.06 198.75Q420.06 197.59 419.66 196.61Q419.26 195.63 418.54 194.90Q417.82 194.18 416.86 193.76Q415.89 193.35 414.73 193.35L414.73 193.35Q413.59 193.35 412.62 193.76Q411.64 194.18 410.92 194.90Q410.20 195.63 409.81 196.61Q409.41 197.59 409.41 198.75ZM421.26 193.50L421.26 194.70L423.96 194.70L423.96 204L425.23 204L425.23 194.70L427.93 194.70L427.93 193.50L421.26 193.50ZM430.57 200.82L430.57 200.82L429.55 201.51Q429.90 202.20 430.45 202.81Q430.99 203.41 431.72 203.78Q432.45 204.15 433.30 204.15L433.30 204.15Q433.93 204.15 434.51 203.94Q435.09 203.73 435.55 203.34Q436.00 202.95 436.27 202.40Q436.53 201.84 436.53 201.15L436.53 201.15Q436.53 200.43 436.27 199.91Q436.02 199.40 435.62 199.03Q435.22 198.66 434.76 198.42Q434.29 198.18 433.87 198.03L433.87 198.03Q432.96 197.72 432.43 197.39Q431.89 197.07 431.67 196.70Q431.44 196.34 431.44 195.90L431.44 195.90Q431.44 195.39 431.83 194.98Q432.22 194.56 433.08 194.56L433.08 194.56Q433.69 194.56 434.12 194.81Q434.55 195.04 434.85 195.42Q435.15 195.79 435.34 196.19L435.34 196.19L436.44 195.56Q436.18 195 435.73 194.50Q435.28 194.00 434.65 193.67Q434.01 193.35 433.15 193.35L433.15 193.35Q432.27 193.35 431.58 193.70Q430.89 194.06 430.50 194.67Q430.11 195.28 430.11 196.06L430.11 196.06Q430.11 196.78 430.39 197.28Q430.66 197.78 431.10 198.11Q431.53 198.45 432.01 198.67Q432.49 198.88 432.88 199.02L432.88 199.02Q433.48 199.23 434.02 199.49Q434.55 199.75 434.88 200.18Q435.21 200.59 435.21 201.30L435.21 201.30Q435.21 202.02 434.70 202.49Q434.19 202.95 433.35 202.95L433.35 202.95Q432.72 202.95 432.22 202.68Q431.73 202.41 431.33 201.93Q430.93 201.45 430.57 200.82Z" fill="#605F64"/></g></svg>
